<svg id="Layer_1" data-name="Layer 1" xmlns="http://www.w3.org/2000/svg" viewBox="0 0 64 64"><title>customer service</title><path d="M24.55,44.91a10.54,10.54,0,0,0,14.9,0A2,2,0,0,0,39.4,42a2.05,2.05,0,0,0-2.82.1,6.54,6.54,0,0,1-9.15,0,2,2,0,0,0-2.82-.1A2,2,0,0,0,24.55,44.91Z"/><circle cx="42" cy="32" r="2"/><path d="M12,23v5h0v8h0a19.9,19.9,0,0,0,4,12v6.4A1.62,1.62,0,0,1,14.38,56h-.32A2,2,0,0,0,12,58a2,2,0,0,0,2,2h.38a5.63,5.63,0,0,0,.82-.06l0,.06,26.9-6.73A1.28,1.28,0,0,1,44,54.38,5.62,5.62,0,0,0,49.62,60h.32A2,2,0,0,0,52,58a2,2,0,0,0-2-2h-.38A1.62,1.62,0,0,1,48,54.38V48h0a19.9,19.9,0,0,0,4-12h0V28h0V23A19,19,0,0,0,33,4H31A19,19,0,0,0,12,23Zm11.52,1A8,8,0,0,1,32,32v2a2,2,0,0,1-2,2,2,2,0,0,0-2,2,2,2,0,0,0,2.07,2h2.11A3.82,3.82,0,0,0,36,36.18V27.86c0-.28,0-.56,0-.84a6.62,6.62,0,0,0-1.95-4.53l-.33-.33a2,2,0,0,1-.07-2.85,2,2,0,0,1,2.85,0l.38.38A10.69,10.69,0,0,1,38.66,22a4.07,4.07,0,0,0,3.55,2h0A5.79,5.79,0,0,1,48,29.79V36a16,16,0,1,1-32-.18V32.95h0v-.82A8.08,8.08,0,0,1,23.52,24Z"/><circle cx="22" cy="32" r="2"/><path d="M60,26.54A2.54,2.54,0,0,0,57.46,24H55a1,1,0,0,0-1,1V35a1,1,0,0,0,1,1h2.46A2.54,2.54,0,0,0,60,33.46Z"/><path d="M10,34.68V25a1,1,0,0,0-1-1H6.54A2.54,2.54,0,0,0,4,26.54v6.93a2.54,2.54,0,0,0,2,2.48v8.22a7.2,7.2,0,0,0,7.2,7.2,2,2,0,0,0,0-4,3.2,3.2,0,0,1-3.2-3.2V34.68Z"/></svg>